<?xml version="1.0" encoding="utf-8"?>
<!-- Generator: Adobe Illustrator 27.7.0, SVG Export Plug-In . SVG Version: 6.00 Build 0)  -->
<svg version="1.1" id="Layer_1" xmlns="http://www.w3.org/2000/svg" xmlns:xlink="http://www.w3.org/1999/xlink" x="0px" y="0px"
	 viewBox="0 0 120 120" style="enable-background:new 0 0 120 120;" xml:space="preserve">
<style type="text/css">
	.st0{fill:#3B3B3B;}
	.st1{fill:#202020;}
	.st2{fill:#E06C75;}
	.st3{fill:#98C379;}
	.st4{fill:#56B6C2;}
	.st5{fill:#E5C07B;}
	.st6{enable-background:new    ;}
	.st7{fill:#FFFFFF;}
</style>
<circle class="st0" cx="60" cy="60" r="60"/>
<g>
	<path class="st1" d="M80.7,100.1c-6.2,3.3-13.2,5.1-20.7,5.1C35.2,105.2,15.2,85,15.2,60s20-45.2,44.8-45.2S104.8,35,104.8,60
		c0,2.9-0.3,5.8-0.8,8.5c-2.4,10.2-9,8.6-9,8.6s-9-4.3-15.7,0.9C75,81.3,78,92.5,80.7,100.1z M69.1,88.4c0-3.2-2.6-5.8-5.8-5.8
		s-5.8,2.6-5.8,5.8c0,3.2,2.6,5.8,5.8,5.8S69.1,91.6,69.1,88.4z"/>
	<circle class="st2" cx="39.1" cy="74" r="10.7"/>
	<circle class="st3" cx="35.6" cy="46.8" r="10.7"/>
	<circle class="st4" cx="60" cy="32.2" r="10.7"/>
	<circle class="st5" cx="84.5" cy="45.8" r="10.7"/>
</g>
<g class="st6">
	<path class="st7" d="M52.9,65.5V50.7h2.9l3.5,10.5c0.3,1,0.6,1.7,0.7,2.2c0.2-0.5,0.4-1.3,0.8-2.4l3.5-10.3H67v14.8h-1.9V53.1
		l-4.3,12.4h-1.8l-4.3-12.6v12.6H52.9z"/>
</g>
</svg>
